<svg width="661" height="147" viewBox="0 0 661 147" fill="none" xmlns="http://www.w3.org/2000/svg">
<g id="Group 87">
<path id="Dusty Rose" d="M362.76 142V127.1H367.66C369.14 127.1 370.427 127.407 371.52 128.02C372.613 128.62 373.46 129.48 374.06 130.6C374.66 131.707 374.96 133.02 374.96 134.54C374.96 136.047 374.66 137.36 374.06 138.48C373.46 139.6 372.613 140.467 371.52 141.08C370.427 141.693 369.14 142 367.66 142H362.76ZM364.36 140.5H367.66C368.807 140.5 369.8 140.26 370.64 139.78C371.48 139.287 372.127 138.593 372.58 137.7C373.047 136.807 373.28 135.753 373.28 134.54C373.28 133.327 373.047 132.28 372.58 131.4C372.113 130.507 371.46 129.82 370.62 129.34C369.78 128.847 368.793 128.6 367.66 128.6H364.36V140.5ZM381.184 142.24C380.437 142.24 379.757 142.067 379.144 141.72C378.53 141.36 378.044 140.867 377.684 140.24C377.337 139.6 377.164 138.867 377.164 138.04V131.28H378.664V137.86C378.664 138.433 378.777 138.94 379.004 139.38C379.244 139.807 379.57 140.14 379.984 140.38C380.41 140.62 380.897 140.74 381.444 140.74C381.99 140.74 382.477 140.62 382.904 140.38C383.33 140.127 383.664 139.773 383.904 139.32C384.144 138.853 384.264 138.3 384.264 137.66V131.28H385.764V142H384.264V139.92L384.604 140C384.35 140.693 383.917 141.24 383.304 141.64C382.69 142.04 381.984 142.24 381.184 142.24ZM392.569 142.24C391.542 142.24 390.642 141.98 389.869 141.46C389.095 140.94 388.535 140.233 388.189 139.34L389.449 138.74C389.755 139.393 390.182 139.913 390.729 140.3C391.289 140.687 391.902 140.88 392.569 140.88C393.209 140.88 393.749 140.727 394.189 140.42C394.629 140.1 394.849 139.687 394.849 139.18C394.849 138.807 394.742 138.513 394.529 138.3C394.315 138.073 394.069 137.9 393.789 137.78C393.509 137.66 393.262 137.573 393.049 137.52L391.509 137.08C390.522 136.8 389.809 136.407 389.369 135.9C388.929 135.393 388.709 134.807 388.709 134.14C388.709 133.513 388.869 132.967 389.189 132.5C389.509 132.033 389.942 131.673 390.489 131.42C391.035 131.167 391.642 131.04 392.309 131.04C393.215 131.04 394.035 131.28 394.769 131.76C395.515 132.227 396.042 132.88 396.349 133.72L395.069 134.32C394.802 133.72 394.415 133.253 393.909 132.92C393.415 132.573 392.862 132.4 392.249 132.4C391.649 132.4 391.169 132.553 390.809 132.86C390.449 133.167 390.269 133.553 390.269 134.02C390.269 134.38 390.362 134.667 390.549 134.88C390.735 135.093 390.949 135.253 391.189 135.36C391.442 135.467 391.662 135.547 391.849 135.6L393.629 136.12C394.495 136.373 395.169 136.767 395.649 137.3C396.142 137.833 396.389 138.46 396.389 139.18C396.389 139.767 396.222 140.293 395.889 140.76C395.569 141.227 395.122 141.593 394.549 141.86C393.975 142.113 393.315 142.24 392.569 142.24ZM403.124 142.12C402.164 142.12 401.424 141.84 400.904 141.28C400.384 140.72 400.124 139.92 400.124 138.88V132.78H398.144V131.28H398.644C399.098 131.28 399.458 131.133 399.724 130.84C399.991 130.533 400.124 130.153 400.124 129.7V128.8H401.624V131.28H403.984V132.78H401.624V138.88C401.624 139.24 401.678 139.56 401.784 139.84C401.891 140.107 402.071 140.32 402.324 140.48C402.591 140.64 402.944 140.72 403.384 140.72C403.491 140.72 403.618 140.713 403.764 140.7C403.911 140.687 404.038 140.673 404.144 140.66V142C403.984 142.04 403.804 142.067 403.604 142.08C403.404 142.107 403.244 142.12 403.124 142.12ZM406.998 146.4C406.785 146.4 406.565 146.38 406.338 146.34C406.125 146.313 405.912 146.26 405.698 146.18V144.78C405.832 144.793 405.998 144.813 406.198 144.84C406.412 144.88 406.625 144.9 406.838 144.9C407.492 144.9 407.992 144.76 408.338 144.48C408.685 144.213 409.025 143.693 409.358 142.92L410.038 141.32L409.998 142.64L405.458 131.28H407.078L410.798 140.66H410.378L414.078 131.28H415.738L410.838 143.36C410.625 143.88 410.352 144.373 410.018 144.84C409.698 145.307 409.292 145.68 408.798 145.96C408.305 146.253 407.705 146.4 406.998 146.4ZM421.119 142V127.1H426.239C427.213 127.1 428.066 127.293 428.799 127.68C429.533 128.053 430.099 128.587 430.499 129.28C430.913 129.96 431.119 130.753 431.119 131.66C431.119 132.713 430.839 133.613 430.279 134.36C429.733 135.107 428.986 135.633 428.039 135.94L431.519 142H429.639L425.999 135.58L427.079 136.2H422.719V142H421.119ZM422.719 134.7H426.319C426.959 134.7 427.519 134.58 427.999 134.34C428.479 134.087 428.853 133.733 429.119 133.28C429.386 132.813 429.519 132.267 429.519 131.64C429.519 131.013 429.386 130.473 429.119 130.02C428.853 129.567 428.479 129.22 427.999 128.98C427.519 128.727 426.959 128.6 426.319 128.6H422.719V134.7ZM438.126 142.24C437.113 142.24 436.193 142 435.366 141.52C434.54 141.027 433.88 140.36 433.386 139.52C432.906 138.667 432.666 137.7 432.666 136.62C432.666 135.553 432.906 134.6 433.386 133.76C433.866 132.92 434.513 132.26 435.326 131.78C436.153 131.287 437.086 131.04 438.126 131.04C439.166 131.04 440.093 131.28 440.906 131.76C441.733 132.24 442.38 132.9 442.846 133.74C443.326 134.58 443.566 135.54 443.566 136.62C443.566 137.713 443.32 138.687 442.826 139.54C442.333 140.38 441.673 141.04 440.846 141.52C440.033 142 439.126 142.24 438.126 142.24ZM438.126 140.74C438.846 140.74 439.493 140.56 440.066 140.2C440.653 139.84 441.113 139.347 441.446 138.72C441.793 138.093 441.966 137.393 441.966 136.62C441.966 135.847 441.793 135.153 441.446 134.54C441.113 133.927 440.653 133.44 440.066 133.08C439.493 132.72 438.846 132.54 438.126 132.54C437.406 132.54 436.753 132.72 436.166 133.08C435.593 133.44 435.133 133.927 434.786 134.54C434.44 135.153 434.266 135.847 434.266 136.62C434.266 137.393 434.44 138.093 434.786 138.72C435.133 139.347 435.593 139.84 436.166 140.2C436.753 140.56 437.406 140.74 438.126 140.74ZM449.932 142.24C448.905 142.24 448.005 141.98 447.232 141.46C446.459 140.94 445.899 140.233 445.552 139.34L446.812 138.74C447.119 139.393 447.545 139.913 448.092 140.3C448.652 140.687 449.265 140.88 449.932 140.88C450.572 140.88 451.112 140.727 451.552 140.42C451.992 140.1 452.212 139.687 452.212 139.18C452.212 138.807 452.105 138.513 451.892 138.3C451.679 138.073 451.432 137.9 451.152 137.78C450.872 137.66 450.625 137.573 450.412 137.52L448.872 137.08C447.885 136.8 447.172 136.407 446.732 135.9C446.292 135.393 446.072 134.807 446.072 134.14C446.072 133.513 446.232 132.967 446.552 132.5C446.872 132.033 447.305 131.673 447.852 131.42C448.399 131.167 449.005 131.04 449.672 131.04C450.579 131.04 451.399 131.28 452.132 131.76C452.879 132.227 453.405 132.88 453.712 133.72L452.432 134.32C452.165 133.72 451.779 133.253 451.272 132.92C450.779 132.573 450.225 132.4 449.612 132.4C449.012 132.4 448.532 132.553 448.172 132.86C447.812 133.167 447.632 133.553 447.632 134.02C447.632 134.38 447.725 134.667 447.912 134.88C448.099 135.093 448.312 135.253 448.552 135.36C448.805 135.467 449.025 135.547 449.212 135.6L450.992 136.12C451.859 136.373 452.532 136.767 453.012 137.3C453.505 137.833 453.752 138.46 453.752 139.18C453.752 139.767 453.585 140.293 453.252 140.76C452.932 141.227 452.485 141.593 451.912 141.86C451.339 142.113 450.679 142.24 449.932 142.24ZM461.268 142.24C460.268 142.24 459.361 142 458.548 141.52C457.748 141.027 457.114 140.353 456.648 139.5C456.181 138.647 455.948 137.68 455.948 136.6C455.948 135.52 456.174 134.567 456.628 133.74C457.081 132.9 457.694 132.24 458.468 131.76C459.254 131.28 460.134 131.04 461.108 131.04C461.881 131.04 462.568 131.187 463.168 131.48C463.781 131.76 464.301 132.147 464.728 132.64C465.154 133.12 465.481 133.667 465.708 134.28C465.934 134.88 466.048 135.5 466.048 136.14C466.048 136.273 466.041 136.427 466.028 136.6C466.014 136.76 465.994 136.927 465.968 137.1H456.908V135.7H465.108L464.388 136.3C464.508 135.567 464.421 134.913 464.128 134.34C463.848 133.753 463.441 133.293 462.908 132.96C462.374 132.613 461.774 132.44 461.108 132.44C460.441 132.44 459.821 132.613 459.248 132.96C458.688 133.307 458.248 133.793 457.928 134.42C457.608 135.033 457.481 135.767 457.548 136.62C457.481 137.473 457.614 138.22 457.948 138.86C458.294 139.487 458.761 139.973 459.348 140.32C459.948 140.667 460.588 140.84 461.268 140.84C462.054 140.84 462.714 140.653 463.248 140.28C463.781 139.907 464.214 139.44 464.548 138.88L465.828 139.56C465.614 140.04 465.288 140.487 464.848 140.9C464.408 141.3 463.881 141.627 463.268 141.88C462.668 142.12 462.001 142.24 461.268 142.24Z" fill="#38040E"/>
<path id="Sage Green" d="M10.78 141.24C9.83333 141.24 8.97333 141.06 8.2 140.7C7.42667 140.34 6.77333 139.86 6.24 139.26C5.70667 138.647 5.32667 137.973 5.1 137.24L6.54 136.7C6.88667 137.713 7.42667 138.487 8.16 139.02C8.89333 139.54 9.76667 139.8 10.78 139.8C11.42 139.8 11.98 139.7 12.46 139.5C12.9533 139.287 13.3333 138.993 13.6 138.62C13.8667 138.247 14 137.813 14 137.32C14 136.587 13.8 136.02 13.4 135.62C13 135.22 12.4267 134.913 11.68 134.7L9 133.9C7.94667 133.593 7.13333 133.08 6.56 132.36C6 131.64 5.72 130.82 5.72 129.9C5.72 129.113 5.91333 128.42 6.3 127.82C6.68667 127.207 7.21333 126.727 7.88 126.38C8.56 126.033 9.32667 125.86 10.18 125.86C11.0733 125.86 11.8733 126.027 12.58 126.36C13.3 126.68 13.9067 127.107 14.4 127.64C14.8933 128.173 15.2467 128.767 15.46 129.42L14.06 129.98C13.74 129.1 13.24 128.433 12.56 127.98C11.8933 127.527 11.1067 127.3 10.2 127.3C9.62667 127.3 9.12 127.4 8.68 127.6C8.25333 127.8 7.92 128.087 7.68 128.46C7.44 128.833 7.32 129.273 7.32 129.78C7.32 130.393 7.51333 130.947 7.9 131.44C8.28667 131.92 8.88 132.28 9.68 132.52L12.04 133.22C13.2133 133.567 14.1 134.067 14.7 134.72C15.3 135.373 15.6 136.193 15.6 137.18C15.6 137.98 15.3933 138.687 14.98 139.3C14.58 139.9 14.0133 140.373 13.28 140.72C12.56 141.067 11.7267 141.24 10.78 141.24ZM21.1791 141.24C20.4991 141.24 19.8924 141.113 19.3591 140.86C18.8257 140.593 18.4057 140.233 18.0991 139.78C17.7924 139.327 17.6391 138.807 17.6391 138.22C17.6391 137.66 17.7591 137.153 17.9991 136.7C18.2391 136.233 18.6124 135.84 19.1191 135.52C19.6257 135.2 20.2724 134.973 21.0591 134.84L25.2591 134.14V135.5L21.4191 136.14C20.6457 136.273 20.0857 136.52 19.7391 136.88C19.4057 137.24 19.2391 137.667 19.2391 138.16C19.2391 138.64 19.4257 139.047 19.7991 139.38C20.1857 139.713 20.6791 139.88 21.2791 139.88C22.0124 139.88 22.6524 139.727 23.1991 139.42C23.7457 139.1 24.1724 138.673 24.4791 138.14C24.7857 137.607 24.9391 137.013 24.9391 136.36V133.64C24.9391 133 24.7057 132.48 24.2391 132.08C23.7724 131.68 23.1657 131.48 22.4191 131.48C21.7657 131.48 21.1924 131.647 20.6991 131.98C20.2057 132.3 19.8391 132.72 19.5991 133.24L18.2391 132.5C18.4391 132.047 18.7524 131.633 19.1791 131.26C19.6191 130.887 20.1191 130.593 20.6791 130.38C21.2391 130.153 21.8191 130.04 22.4191 130.04C23.2057 130.04 23.8991 130.193 24.4991 130.5C25.1124 130.807 25.5857 131.233 25.9191 131.78C26.2657 132.313 26.4391 132.933 26.4391 133.64V141H24.9391V138.86L25.1591 139.08C24.9724 139.48 24.6791 139.847 24.2791 140.18C23.8924 140.5 23.4324 140.76 22.8991 140.96C22.3791 141.147 21.8057 141.24 21.1791 141.24ZM34.6044 145.4C33.871 145.4 33.191 145.287 32.5644 145.06C31.951 144.833 31.4177 144.52 30.9644 144.12C30.5244 143.733 30.1844 143.28 29.9444 142.76L31.3244 142.02C31.5377 142.527 31.9177 142.967 32.4644 143.34C33.011 143.713 33.711 143.9 34.5644 143.9C35.2177 143.9 35.8177 143.773 36.3644 143.52C36.911 143.267 37.351 142.893 37.6844 142.4C38.0177 141.907 38.1844 141.3 38.1844 140.58V138.2L38.4244 138.42C38.051 139.193 37.4977 139.793 36.7644 140.22C36.031 140.633 35.231 140.84 34.3644 140.84C33.3644 140.84 32.4644 140.6 31.6644 140.12C30.8644 139.64 30.231 138.993 29.7644 138.18C29.311 137.353 29.0844 136.44 29.0844 135.44C29.0844 134.427 29.311 133.513 29.7644 132.7C30.231 131.887 30.8577 131.24 31.6444 130.76C32.4444 130.28 33.351 130.04 34.3644 130.04C35.231 130.04 36.0177 130.24 36.7244 130.64C37.4444 131.04 38.011 131.58 38.4244 132.26L38.1844 132.68V130.28H39.6844V140.58C39.6844 141.5 39.4644 142.32 39.0244 143.04C38.5977 143.773 37.9977 144.347 37.2244 144.76C36.4644 145.187 35.591 145.4 34.6044 145.4ZM34.4444 139.34C35.1377 139.34 35.7644 139.167 36.3244 138.82C36.8844 138.46 37.331 137.987 37.6644 137.4C38.011 136.8 38.1844 136.147 38.1844 135.44C38.1844 134.733 38.011 134.087 37.6644 133.5C37.331 132.9 36.8844 132.427 36.3244 132.08C35.7644 131.72 35.1377 131.54 34.4444 131.54C33.7377 131.54 33.0977 131.72 32.5244 132.08C31.951 132.427 31.4977 132.893 31.1644 133.48C30.8444 134.067 30.6844 134.72 30.6844 135.44C30.6844 136.147 30.8444 136.8 31.1644 137.4C31.4977 137.987 31.9444 138.46 32.5044 138.82C33.0777 139.167 33.7244 139.34 34.4444 139.34ZM47.6466 141.24C46.6466 141.24 45.7399 141 44.9266 140.52C44.1266 140.027 43.4932 139.353 43.0266 138.5C42.5599 137.647 42.3266 136.68 42.3266 135.6C42.3266 134.52 42.5532 133.567 43.0066 132.74C43.4599 131.9 44.0732 131.24 44.8466 130.76C45.6332 130.28 46.5132 130.04 47.4866 130.04C48.2599 130.04 48.9466 130.187 49.5466 130.48C50.1599 130.76 50.6799 131.147 51.1066 131.64C51.5332 132.12 51.8599 132.667 52.0866 133.28C52.3132 133.88 52.4266 134.5 52.4266 135.14C52.4266 135.273 52.4199 135.427 52.4066 135.6C52.3932 135.76 52.3732 135.927 52.3466 136.1H43.2866V134.7H51.4866L50.7666 135.3C50.8866 134.567 50.7999 133.913 50.5066 133.34C50.2266 132.753 49.8199 132.293 49.2866 131.96C48.7532 131.613 48.1532 131.44 47.4866 131.44C46.8199 131.44 46.1999 131.613 45.6266 131.96C45.0666 132.307 44.6266 132.793 44.3066 133.42C43.9866 134.033 43.8599 134.767 43.9266 135.62C43.8599 136.473 43.9932 137.22 44.3266 137.86C44.6732 138.487 45.1399 138.973 45.7266 139.32C46.3266 139.667 46.9666 139.84 47.6466 139.84C48.4332 139.84 49.0932 139.653 49.6266 139.28C50.1599 138.907 50.5932 138.44 50.9266 137.88L52.2066 138.56C51.9932 139.04 51.6666 139.487 51.2266 139.9C50.7866 140.3 50.2599 140.627 49.6466 140.88C49.0466 141.12 48.3799 141.24 47.6466 141.24ZM65.4897 141.24C64.4364 141.24 63.4697 141.053 62.5897 140.68C61.7097 140.293 60.943 139.76 60.2897 139.08C59.6497 138.387 59.1497 137.573 58.7897 136.64C58.4297 135.707 58.2497 134.68 58.2497 133.56C58.2497 132.44 58.4297 131.413 58.7897 130.48C59.1497 129.547 59.6497 128.733 60.2897 128.04C60.943 127.347 61.7097 126.813 62.5897 126.44C63.4697 126.053 64.4364 125.86 65.4897 125.86C66.503 125.86 67.4097 126.04 68.2097 126.4C69.023 126.76 69.703 127.227 70.2497 127.8C70.8097 128.36 71.2097 128.953 71.4497 129.58L70.0097 130.28C69.6364 129.373 69.063 128.66 68.2897 128.14C67.5164 127.62 66.583 127.36 65.4897 127.36C64.3964 127.36 63.423 127.62 62.5697 128.14C61.7164 128.66 61.0497 129.387 60.5697 130.32C60.0897 131.24 59.8497 132.32 59.8497 133.56C59.8497 134.787 60.0897 135.867 60.5697 136.8C61.0497 137.733 61.7164 138.46 62.5697 138.98C63.423 139.487 64.3964 139.74 65.4897 139.74C66.463 139.74 67.3364 139.527 68.1097 139.1C68.8964 138.673 69.5164 138.093 69.9697 137.36C70.423 136.613 70.6497 135.76 70.6497 134.8V133.98L71.3697 134.7H65.4897V133.3H72.2497V134.54C72.2497 135.513 72.0764 136.413 71.7297 137.24C71.383 138.053 70.903 138.76 70.2897 139.36C69.6764 139.96 68.9564 140.427 68.1297 140.76C67.3164 141.08 66.4364 141.24 65.4897 141.24ZM74.8955 141V130.28H76.3955V132.04L76.1955 131.78C76.4488 131.273 76.8288 130.873 77.3355 130.58C77.8555 130.287 78.4821 130.14 79.2155 130.14H79.8955V131.64H78.9555C78.1821 131.64 77.5621 131.88 77.0955 132.36C76.6288 132.84 76.3955 133.52 76.3955 134.4V141H74.8955ZM86.5333 141.24C85.5333 141.24 84.6266 141 83.8133 140.52C83.0133 140.027 82.3799 139.353 81.9133 138.5C81.4466 137.647 81.2133 136.68 81.2133 135.6C81.2133 134.52 81.4399 133.567 81.8933 132.74C82.3466 131.9 82.9599 131.24 83.7333 130.76C84.5199 130.28 85.3999 130.04 86.3733 130.04C87.1466 130.04 87.8333 130.187 88.4333 130.48C89.0466 130.76 89.5666 131.147 89.9933 131.64C90.4199 132.12 90.7466 132.667 90.9733 133.28C91.1999 133.88 91.3133 134.5 91.3133 135.14C91.3133 135.273 91.3066 135.427 91.2933 135.6C91.2799 135.76 91.2599 135.927 91.2333 136.1H82.1733V134.7H90.3733L89.6533 135.3C89.7733 134.567 89.6866 133.913 89.3933 133.34C89.1133 132.753 88.7066 132.293 88.1733 131.96C87.6399 131.613 87.0399 131.44 86.3733 131.44C85.7066 131.44 85.0866 131.613 84.5133 131.96C83.9533 132.307 83.5133 132.793 83.1933 133.42C82.8733 134.033 82.7466 134.767 82.8133 135.62C82.7466 136.473 82.8799 137.22 83.2133 137.86C83.5599 138.487 84.0266 138.973 84.6133 139.32C85.2133 139.667 85.8533 139.84 86.5333 139.84C87.3199 139.84 87.9799 139.653 88.5133 139.28C89.0466 138.907 89.4799 138.44 89.8133 137.88L91.0933 138.56C90.8799 139.04 90.5533 139.487 90.1133 139.9C89.6733 140.3 89.1466 140.627 88.5333 140.88C87.9333 141.12 87.2666 141.24 86.5333 141.24ZM98.838 141.24C97.838 141.24 96.9313 141 96.118 140.52C95.318 140.027 94.6846 139.353 94.218 138.5C93.7513 137.647 93.518 136.68 93.518 135.6C93.518 134.52 93.7446 133.567 94.198 132.74C94.6513 131.9 95.2646 131.24 96.038 130.76C96.8246 130.28 97.7046 130.04 98.678 130.04C99.4513 130.04 100.138 130.187 100.738 130.48C101.351 130.76 101.871 131.147 102.298 131.64C102.725 132.12 103.051 132.667 103.278 133.28C103.505 133.88 103.618 134.5 103.618 135.14C103.618 135.273 103.611 135.427 103.598 135.6C103.585 135.76 103.565 135.927 103.538 136.1H94.478V134.7H102.678L101.958 135.3C102.078 134.567 101.991 133.913 101.698 133.34C101.418 132.753 101.011 132.293 100.478 131.96C99.9446 131.613 99.3446 131.44 98.678 131.44C98.0113 131.44 97.3913 131.613 96.818 131.96C96.258 132.307 95.818 132.793 95.498 133.42C95.178 134.033 95.0513 134.767 95.118 135.62C95.0513 136.473 95.1846 137.22 95.518 137.86C95.8646 138.487 96.3313 138.973 96.918 139.32C97.518 139.667 98.158 139.84 98.838 139.84C99.6246 139.84 100.285 139.653 100.818 139.28C101.351 138.907 101.785 138.44 102.118 137.88L103.398 138.56C103.185 139.04 102.858 139.487 102.418 139.9C101.978 140.3 101.451 140.627 100.838 140.88C100.238 141.12 99.5713 141.24 98.838 141.24ZM106.263 141V130.28H107.763V132.36L107.423 132.28C107.689 131.587 108.123 131.04 108.723 130.64C109.336 130.24 110.043 130.04 110.843 130.04C111.603 130.04 112.283 130.213 112.883 130.56C113.496 130.907 113.976 131.387 114.323 132C114.683 132.6 114.863 133.28 114.863 134.04V141H113.363V134.62C113.363 133.967 113.243 133.413 113.003 132.96C112.776 132.507 112.449 132.16 112.023 131.92C111.609 131.667 111.129 131.54 110.583 131.54C110.036 131.54 109.549 131.667 109.123 131.92C108.696 132.16 108.363 132.513 108.123 132.98C107.883 133.433 107.763 133.98 107.763 134.62V141H106.263Z" fill="#38040E"/>
<g id="Rectangle 57" filter="url(#filter0_d_540_27)">
<rect x="4" width="123" height="102" rx="30" fill="#809380"/>
</g>
<g id="Rectangle 58" filter="url(#filter1_d_540_27)">
<rect x="178" width="123" height="102" rx="30" fill="#C8BCAD"/>
</g>
<g id="Rectangle 59" filter="url(#filter2_d_540_27)">
<rect x="352" width="123" height="102" rx="30" fill="#BE8875"/>
</g>
<g id="Rectangle 60" filter="url(#filter3_d_540_27)">
<rect x="526" width="123" height="102" rx="30" fill="#957E85"/>
</g>
<path id="Moonlight White" d="M163.76 141V126.1H165.16L170.76 134.22H169.98L175.56 126.1H176.96V141H175.36V128.26L175.88 128.46L170.4 136.4H170.32L164.86 128.46L165.36 128.26V141H163.76ZM185.279 141.24C184.265 141.24 183.345 141 182.519 140.52C181.692 140.027 181.032 139.36 180.539 138.52C180.059 137.667 179.819 136.7 179.819 135.62C179.819 134.553 180.059 133.6 180.539 132.76C181.019 131.92 181.665 131.26 182.479 130.78C183.305 130.287 184.239 130.04 185.279 130.04C186.319 130.04 187.245 130.28 188.059 130.76C188.885 131.24 189.532 131.9 189.999 132.74C190.479 133.58 190.719 134.54 190.719 135.62C190.719 136.713 190.472 137.687 189.979 138.54C189.485 139.38 188.825 140.04 187.999 140.52C187.185 141 186.279 141.24 185.279 141.24ZM185.279 139.74C185.999 139.74 186.645 139.56 187.219 139.2C187.805 138.84 188.265 138.347 188.599 137.72C188.945 137.093 189.119 136.393 189.119 135.62C189.119 134.847 188.945 134.153 188.599 133.54C188.265 132.927 187.805 132.44 187.219 132.08C186.645 131.72 185.999 131.54 185.279 131.54C184.559 131.54 183.905 131.72 183.319 132.08C182.745 132.44 182.285 132.927 181.939 133.54C181.592 134.153 181.419 134.847 181.419 135.62C181.419 136.393 181.592 137.093 181.939 137.72C182.285 138.347 182.745 138.84 183.319 139.2C183.905 139.56 184.559 139.74 185.279 139.74ZM198.384 141.24C197.371 141.24 196.451 141 195.624 140.52C194.798 140.027 194.138 139.36 193.644 138.52C193.164 137.667 192.924 136.7 192.924 135.62C192.924 134.553 193.164 133.6 193.644 132.76C194.124 131.92 194.771 131.26 195.584 130.78C196.411 130.287 197.344 130.04 198.384 130.04C199.424 130.04 200.351 130.28 201.164 130.76C201.991 131.24 202.638 131.9 203.104 132.74C203.584 133.58 203.824 134.54 203.824 135.62C203.824 136.713 203.578 137.687 203.084 138.54C202.591 139.38 201.931 140.04 201.104 140.52C200.291 141 199.384 141.24 198.384 141.24ZM198.384 139.74C199.104 139.74 199.751 139.56 200.324 139.2C200.911 138.84 201.371 138.347 201.704 137.72C202.051 137.093 202.224 136.393 202.224 135.62C202.224 134.847 202.051 134.153 201.704 133.54C201.371 132.927 200.911 132.44 200.324 132.08C199.751 131.72 199.104 131.54 198.384 131.54C197.664 131.54 197.011 131.72 196.424 132.08C195.851 132.44 195.391 132.927 195.044 133.54C194.698 134.153 194.524 134.847 194.524 135.62C194.524 136.393 194.698 137.093 195.044 137.72C195.391 138.347 195.851 138.84 196.424 139.2C197.011 139.56 197.664 139.74 198.384 139.74ZM206.47 141V130.28H207.97V132.36L207.63 132.28C207.896 131.587 208.33 131.04 208.93 130.64C209.543 130.24 210.25 130.04 211.05 130.04C211.81 130.04 212.49 130.213 213.09 130.56C213.703 130.907 214.183 131.387 214.53 132C214.89 132.6 215.07 133.28 215.07 134.04V141H213.57V134.62C213.57 133.967 213.45 133.413 213.21 132.96C212.983 132.507 212.656 132.16 212.23 131.92C211.816 131.667 211.336 131.54 210.79 131.54C210.243 131.54 209.756 131.667 209.33 131.92C208.903 132.16 208.57 132.513 208.33 132.98C208.09 133.433 207.97 133.98 207.97 134.62V141H206.47ZM217.935 141V125.86H219.435V141H217.935ZM222.505 141V130.28H224.005V141H222.505ZM222.505 128.3V126.1H224.005V128.3H222.505ZM232.155 145.4C231.422 145.4 230.742 145.287 230.115 145.06C229.502 144.833 228.968 144.52 228.515 144.12C228.075 143.733 227.735 143.28 227.495 142.76L228.875 142.02C229.088 142.527 229.468 142.967 230.015 143.34C230.562 143.713 231.262 143.9 232.115 143.9C232.768 143.9 233.368 143.773 233.915 143.52C234.462 143.267 234.902 142.893 235.235 142.4C235.568 141.907 235.735 141.3 235.735 140.58V138.2L235.975 138.42C235.602 139.193 235.048 139.793 234.315 140.22C233.582 140.633 232.782 140.84 231.915 140.84C230.915 140.84 230.015 140.6 229.215 140.12C228.415 139.64 227.782 138.993 227.315 138.18C226.862 137.353 226.635 136.44 226.635 135.44C226.635 134.427 226.862 133.513 227.315 132.7C227.782 131.887 228.408 131.24 229.195 130.76C229.995 130.28 230.902 130.04 231.915 130.04C232.782 130.04 233.568 130.24 234.275 130.64C234.995 131.04 235.562 131.58 235.975 132.26L235.735 132.68V130.28H237.235V140.58C237.235 141.5 237.015 142.32 236.575 143.04C236.148 143.773 235.548 144.347 234.775 144.76C234.015 145.187 233.142 145.4 232.155 145.4ZM231.995 139.34C232.688 139.34 233.315 139.167 233.875 138.82C234.435 138.46 234.882 137.987 235.215 137.4C235.562 136.8 235.735 136.147 235.735 135.44C235.735 134.733 235.562 134.087 235.215 133.5C234.882 132.9 234.435 132.427 233.875 132.08C233.315 131.72 232.688 131.54 231.995 131.54C231.288 131.54 230.648 131.72 230.075 132.08C229.502 132.427 229.048 132.893 228.715 133.48C228.395 134.067 228.235 134.72 228.235 135.44C228.235 136.147 228.395 136.8 228.715 137.4C229.048 137.987 229.495 138.46 230.055 138.82C230.628 139.167 231.275 139.34 231.995 139.34ZM240.317 141V125.86H241.817V132.36L241.477 132.28C241.744 131.587 242.177 131.04 242.777 130.64C243.391 130.24 244.097 130.04 244.897 130.04C245.657 130.04 246.337 130.213 246.937 130.56C247.551 130.907 248.031 131.387 248.377 132C248.737 132.6 248.917 133.28 248.917 134.04V141H247.417V134.62C247.417 133.967 247.297 133.413 247.057 132.96C246.817 132.507 246.484 132.16 246.057 131.92C245.644 131.667 245.171 131.54 244.637 131.54C244.104 131.54 243.624 131.667 243.197 131.92C242.771 132.16 242.431 132.513 242.177 132.98C241.937 133.433 241.817 133.98 241.817 134.62V141H240.317ZM255.882 141.12C254.922 141.12 254.182 140.84 253.662 140.28C253.142 139.72 252.882 138.92 252.882 137.88V131.78H250.902V130.28H251.402C251.856 130.28 252.216 130.133 252.482 129.84C252.749 129.533 252.882 129.153 252.882 128.7V127.8H254.382V130.28H256.742V131.78H254.382V137.88C254.382 138.24 254.436 138.56 254.542 138.84C254.649 139.107 254.829 139.32 255.082 139.48C255.349 139.64 255.702 139.72 256.142 139.72C256.249 139.72 256.376 139.713 256.522 139.7C256.669 139.687 256.796 139.673 256.902 139.66V141C256.742 141.04 256.562 141.067 256.362 141.08C256.162 141.107 256.002 141.12 255.882 141.12ZM265.895 141L261.615 126.1H263.235L266.935 139.44H266.595L270.395 126.1H272.095L275.875 139.44H275.515L279.235 126.1H280.855L276.575 141H274.875L271.055 127.6H271.415L267.595 141H265.895ZM282.622 141V125.86H284.122V132.36L283.782 132.28C284.049 131.587 284.482 131.04 285.082 130.64C285.695 130.24 286.402 130.04 287.202 130.04C287.962 130.04 288.642 130.213 289.242 130.56C289.855 130.907 290.335 131.387 290.682 132C291.042 132.6 291.222 133.28 291.222 134.04V141H289.722V134.62C289.722 133.967 289.602 133.413 289.362 132.96C289.122 132.507 288.789 132.16 288.362 131.92C287.949 131.667 287.475 131.54 286.942 131.54C286.409 131.54 285.929 131.667 285.502 131.92C285.075 132.16 284.735 132.513 284.482 132.98C284.242 133.433 284.122 133.98 284.122 134.62V141H282.622ZM294.087 141V130.28H295.587V141H294.087ZM294.087 128.3V126.1H295.587V128.3H294.087ZM302.757 141.12C301.797 141.12 301.057 140.84 300.537 140.28C300.017 139.72 299.757 138.92 299.757 137.88V131.78H297.777V130.28H298.277C298.731 130.28 299.091 130.133 299.357 129.84C299.624 129.533 299.757 129.153 299.757 128.7V127.8H301.257V130.28H303.617V131.78H301.257V137.88C301.257 138.24 301.311 138.56 301.417 138.84C301.524 139.107 301.704 139.32 301.957 139.48C302.224 139.64 302.577 139.72 303.017 139.72C303.124 139.72 303.251 139.713 303.397 139.7C303.544 139.687 303.671 139.673 303.777 139.66V141C303.617 141.04 303.437 141.067 303.237 141.08C303.037 141.107 302.877 141.12 302.757 141.12ZM310.9 141.24C309.9 141.24 308.994 141 308.18 140.52C307.38 140.027 306.747 139.353 306.28 138.5C305.814 137.647 305.58 136.68 305.58 135.6C305.58 134.52 305.807 133.567 306.26 132.74C306.714 131.9 307.327 131.24 308.1 130.76C308.887 130.28 309.767 130.04 310.74 130.04C311.514 130.04 312.2 130.187 312.8 130.48C313.414 130.76 313.934 131.147 314.36 131.64C314.787 132.12 315.114 132.667 315.34 133.28C315.567 133.88 315.68 134.5 315.68 135.14C315.68 135.273 315.674 135.427 315.66 135.6C315.647 135.76 315.627 135.927 315.6 136.1H306.54V134.7H314.74L314.02 135.3C314.14 134.567 314.054 133.913 313.76 133.34C313.48 132.753 313.074 132.293 312.54 131.96C312.007 131.613 311.407 131.44 310.74 131.44C310.074 131.44 309.454 131.613 308.88 131.96C308.32 132.307 307.88 132.793 307.56 133.42C307.24 134.033 307.114 134.767 307.18 135.62C307.114 136.473 307.247 137.22 307.58 137.86C307.927 138.487 308.394 138.973 308.98 139.32C309.58 139.667 310.22 139.84 310.9 139.84C311.687 139.84 312.347 139.653 312.88 139.28C313.414 138.907 313.847 138.44 314.18 137.88L315.46 138.56C315.247 139.04 314.92 139.487 314.48 139.9C314.04 140.3 313.514 140.627 312.9 140.88C312.3 141.12 311.634 141.24 310.9 141.24Z" fill="black"/>
<path id="Lavender Mist" d="M527.76 141V126.1H529.36V139.5H535.96V141H527.76ZM541.265 141.24C540.585 141.24 539.978 141.113 539.445 140.86C538.912 140.593 538.492 140.233 538.185 139.78C537.878 139.327 537.725 138.807 537.725 138.22C537.725 137.66 537.845 137.153 538.085 136.7C538.325 136.233 538.698 135.84 539.205 135.52C539.712 135.2 540.358 134.973 541.145 134.84L545.345 134.14V135.5L541.505 136.14C540.732 136.273 540.172 136.52 539.825 136.88C539.492 137.24 539.325 137.667 539.325 138.16C539.325 138.64 539.512 139.047 539.885 139.38C540.272 139.713 540.765 139.88 541.365 139.88C542.098 139.88 542.738 139.727 543.285 139.42C543.832 139.1 544.258 138.673 544.565 138.14C544.872 137.607 545.025 137.013 545.025 136.36V133.64C545.025 133 544.792 132.48 544.325 132.08C543.858 131.68 543.252 131.48 542.505 131.48C541.852 131.48 541.278 131.647 540.785 131.98C540.292 132.3 539.925 132.72 539.685 133.24L538.325 132.5C538.525 132.047 538.838 131.633 539.265 131.26C539.705 130.887 540.205 130.593 540.765 130.38C541.325 130.153 541.905 130.04 542.505 130.04C543.292 130.04 543.985 130.193 544.585 130.5C545.198 130.807 545.672 131.233 546.005 131.78C546.352 132.313 546.525 132.933 546.525 133.64V141H545.025V138.86L545.245 139.08C545.058 139.48 544.765 139.847 544.365 140.18C543.978 140.5 543.518 140.76 542.985 140.96C542.465 141.147 541.892 141.24 541.265 141.24ZM552.275 141L548.095 130.28H549.775L553.295 139.68H552.755L556.295 130.28H557.995L553.775 141H552.275ZM564.432 141.24C563.432 141.24 562.525 141 561.712 140.52C560.912 140.027 560.278 139.353 559.812 138.5C559.345 137.647 559.112 136.68 559.112 135.6C559.112 134.52 559.338 133.567 559.792 132.74C560.245 131.9 560.858 131.24 561.632 130.76C562.418 130.28 563.298 130.04 564.272 130.04C565.045 130.04 565.732 130.187 566.332 130.48C566.945 130.76 567.465 131.147 567.892 131.64C568.318 132.12 568.645 132.667 568.872 133.28C569.098 133.88 569.212 134.5 569.212 135.14C569.212 135.273 569.205 135.427 569.192 135.6C569.178 135.76 569.158 135.927 569.132 136.1H560.072V134.7H568.272L567.552 135.3C567.672 134.567 567.585 133.913 567.292 133.34C567.012 132.753 566.605 132.293 566.072 131.96C565.538 131.613 564.938 131.44 564.272 131.44C563.605 131.44 562.985 131.613 562.412 131.96C561.852 132.307 561.412 132.793 561.092 133.42C560.772 134.033 560.645 134.767 560.712 135.62C560.645 136.473 560.778 137.22 561.112 137.86C561.458 138.487 561.925 138.973 562.512 139.32C563.112 139.667 563.752 139.84 564.432 139.84C565.218 139.84 565.878 139.653 566.412 139.28C566.945 138.907 567.378 138.44 567.712 137.88L568.992 138.56C568.778 139.04 568.452 139.487 568.012 139.9C567.572 140.3 567.045 140.627 566.432 140.88C565.832 141.12 565.165 141.24 564.432 141.24ZM571.856 141V130.28H573.356V132.36L573.016 132.28C573.283 131.587 573.716 131.04 574.316 130.64C574.93 130.24 575.636 130.04 576.436 130.04C577.196 130.04 577.876 130.213 578.476 130.56C579.09 130.907 579.57 131.387 579.916 132C580.276 132.6 580.456 133.28 580.456 134.04V141H578.956V134.62C578.956 133.967 578.836 133.413 578.596 132.96C578.37 132.507 578.043 132.16 577.616 131.92C577.203 131.667 576.723 131.54 576.176 131.54C575.63 131.54 575.143 131.667 574.716 131.92C574.29 132.16 573.956 132.513 573.716 132.98C573.476 133.433 573.356 133.98 573.356 134.62V141H571.856ZM588.161 141.24C587.161 141.24 586.261 141 585.461 140.52C584.661 140.027 584.028 139.36 583.561 138.52C583.108 137.667 582.881 136.707 582.881 135.64C582.881 134.56 583.108 133.6 583.561 132.76C584.028 131.92 584.655 131.26 585.441 130.78C586.241 130.287 587.148 130.04 588.161 130.04C589.081 130.04 589.901 130.24 590.621 130.64C591.341 131.04 591.908 131.58 592.321 132.26L592.081 132.68V125.86H593.581V141H592.081V138.6L592.321 138.82C591.948 139.593 591.388 140.193 590.641 140.62C589.908 141.033 589.081 141.24 588.161 141.24ZM588.241 139.74C588.961 139.74 589.608 139.56 590.181 139.2C590.768 138.84 591.228 138.353 591.561 137.74C591.908 137.113 592.081 136.413 592.081 135.64C592.081 134.867 591.908 134.173 591.561 133.56C591.228 132.933 590.768 132.44 590.181 132.08C589.608 131.72 588.961 131.54 588.241 131.54C587.535 131.54 586.895 131.72 586.321 132.08C585.748 132.44 585.295 132.927 584.961 133.54C584.641 134.153 584.481 134.853 584.481 135.64C584.481 136.413 584.641 137.113 584.961 137.74C585.295 138.353 585.741 138.84 586.301 139.2C586.875 139.56 587.521 139.74 588.241 139.74ZM601.541 141.24C600.541 141.24 599.634 141 598.821 140.52C598.021 140.027 597.388 139.353 596.921 138.5C596.454 137.647 596.221 136.68 596.221 135.6C596.221 134.52 596.448 133.567 596.901 132.74C597.354 131.9 597.968 131.24 598.741 130.76C599.528 130.28 600.408 130.04 601.381 130.04C602.154 130.04 602.841 130.187 603.441 130.48C604.054 130.76 604.574 131.147 605.001 131.64C605.428 132.12 605.754 132.667 605.981 133.28C606.208 133.88 606.321 134.5 606.321 135.14C606.321 135.273 606.314 135.427 606.301 135.6C606.288 135.76 606.268 135.927 606.241 136.1H597.181V134.7H605.381L604.661 135.3C604.781 134.567 604.694 133.913 604.401 133.34C604.121 132.753 603.714 132.293 603.181 131.96C602.648 131.613 602.048 131.44 601.381 131.44C600.714 131.44 600.094 131.613 599.521 131.96C598.961 132.307 598.521 132.793 598.201 133.42C597.881 134.033 597.754 134.767 597.821 135.62C597.754 136.473 597.888 137.22 598.221 137.86C598.568 138.487 599.034 138.973 599.621 139.32C600.221 139.667 600.861 139.84 601.541 139.84C602.328 139.84 602.988 139.653 603.521 139.28C604.054 138.907 604.488 138.44 604.821 137.88L606.101 138.56C605.888 139.04 605.561 139.487 605.121 139.9C604.681 140.3 604.154 140.627 603.541 140.88C602.941 141.12 602.274 141.24 601.541 141.24ZM608.966 141V130.28H610.466V132.04L610.266 131.78C610.519 131.273 610.899 130.873 611.406 130.58C611.926 130.287 612.552 130.14 613.286 130.14H613.966V131.64H613.026C612.252 131.64 611.632 131.88 611.166 132.36C610.699 132.84 610.466 133.52 610.466 134.4V141H608.966ZM622.74 141V126.1H624.14L629.74 134.22H628.96L634.54 126.1H635.94V141H634.34V128.26L634.86 128.46L629.38 136.4H629.3L623.84 128.46L624.34 128.26V141H622.74ZM639.239 141V130.28H640.739V141H639.239ZM639.239 128.3V126.1H640.739V128.3H639.239ZM647.53 141.24C646.503 141.24 645.603 140.98 644.83 140.46C644.056 139.94 643.496 139.233 643.15 138.34L644.41 137.74C644.716 138.393 645.143 138.913 645.69 139.3C646.25 139.687 646.863 139.88 647.53 139.88C648.17 139.88 648.71 139.727 649.15 139.42C649.59 139.1 649.81 138.687 649.81 138.18C649.81 137.807 649.703 137.513 649.49 137.3C649.276 137.073 649.03 136.9 648.75 136.78C648.47 136.66 648.223 136.573 648.01 136.52L646.47 136.08C645.483 135.8 644.77 135.407 644.33 134.9C643.89 134.393 643.67 133.807 643.67 133.14C643.67 132.513 643.83 131.967 644.15 131.5C644.47 131.033 644.903 130.673 645.45 130.42C645.996 130.167 646.603 130.04 647.27 130.04C648.176 130.04 648.996 130.28 649.73 130.76C650.476 131.227 651.003 131.88 651.31 132.72L650.03 133.32C649.763 132.72 649.376 132.253 648.87 131.92C648.376 131.573 647.823 131.4 647.21 131.4C646.61 131.4 646.13 131.553 645.77 131.86C645.41 132.167 645.23 132.553 645.23 133.02C645.23 133.38 645.323 133.667 645.51 133.88C645.696 134.093 645.91 134.253 646.15 134.36C646.403 134.467 646.623 134.547 646.81 134.6L648.59 135.12C649.456 135.373 650.13 135.767 650.61 136.3C651.103 136.833 651.35 137.46 651.35 138.18C651.35 138.767 651.183 139.293 650.85 139.76C650.53 140.227 650.083 140.593 649.51 140.86C648.936 141.113 648.276 141.24 647.53 141.24ZM658.085 141.12C657.125 141.12 656.385 140.84 655.865 140.28C655.345 139.72 655.085 138.92 655.085 137.88V131.78H653.105V130.28H653.605C654.059 130.28 654.419 130.133 654.685 129.84C654.952 129.533 655.085 129.153 655.085 128.7V127.8H656.585V130.28H658.945V131.78H656.585V137.88C656.585 138.24 656.639 138.56 656.745 138.84C656.852 139.107 657.032 139.32 657.285 139.48C657.552 139.64 657.905 139.72 658.345 139.72C658.452 139.72 658.579 139.713 658.725 139.7C658.872 139.687 658.999 139.673 659.105 139.66V141C658.945 141.04 658.765 141.067 658.565 141.08C658.365 141.107 658.205 141.12 658.085 141.12Z" fill="black"/>
</g>
<defs>
<filter id="filter0_d_540_27" x="0" y="0" width="131" height="110" filterUnits="userSpaceOnUse" color-interpolation-filters="sRGB">
<feFlood flood-opacity="0" result="BackgroundImageFix"/>
<feColorMatrix in="SourceAlpha" type="matrix" values="0 0 0 0 0 0 0 0 0 0 0 0 0 0 0 0 0 0 127 0" result="hardAlpha"/>
<feOffset dy="4"/>
<feGaussianBlur stdDeviation="2"/>
<feComposite in2="hardAlpha" operator="out"/>
<feColorMatrix type="matrix" values="0 0 0 0 0 0 0 0 0 0 0 0 0 0 0 0 0 0 0.25 0"/>
<feBlend mode="normal" in2="BackgroundImageFix" result="effect1_dropShadow_540_27"/>
<feBlend mode="normal" in="SourceGraphic" in2="effect1_dropShadow_540_27" result="shape"/>
</filter>
<filter id="filter1_d_540_27" x="174" y="0" width="131" height="110" filterUnits="userSpaceOnUse" color-interpolation-filters="sRGB">
<feFlood flood-opacity="0" result="BackgroundImageFix"/>
<feColorMatrix in="SourceAlpha" type="matrix" values="0 0 0 0 0 0 0 0 0 0 0 0 0 0 0 0 0 0 127 0" result="hardAlpha"/>
<feOffset dy="4"/>
<feGaussianBlur stdDeviation="2"/>
<feComposite in2="hardAlpha" operator="out"/>
<feColorMatrix type="matrix" values="0 0 0 0 0 0 0 0 0 0 0 0 0 0 0 0 0 0 0.25 0"/>
<feBlend mode="normal" in2="BackgroundImageFix" result="effect1_dropShadow_540_27"/>
<feBlend mode="normal" in="SourceGraphic" in2="effect1_dropShadow_540_27" result="shape"/>
</filter>
<filter id="filter2_d_540_27" x="348" y="0" width="131" height="110" filterUnits="userSpaceOnUse" color-interpolation-filters="sRGB">
<feFlood flood-opacity="0" result="BackgroundImageFix"/>
<feColorMatrix in="SourceAlpha" type="matrix" values="0 0 0 0 0 0 0 0 0 0 0 0 0 0 0 0 0 0 127 0" result="hardAlpha"/>
<feOffset dy="4"/>
<feGaussianBlur stdDeviation="2"/>
<feComposite in2="hardAlpha" operator="out"/>
<feColorMatrix type="matrix" values="0 0 0 0 0 0 0 0 0 0 0 0 0 0 0 0 0 0 0.25 0"/>
<feBlend mode="normal" in2="BackgroundImageFix" result="effect1_dropShadow_540_27"/>
<feBlend mode="normal" in="SourceGraphic" in2="effect1_dropShadow_540_27" result="shape"/>
</filter>
<filter id="filter3_d_540_27" x="522" y="0" width="131" height="110" filterUnits="userSpaceOnUse" color-interpolation-filters="sRGB">
<feFlood flood-opacity="0" result="BackgroundImageFix"/>
<feColorMatrix in="SourceAlpha" type="matrix" values="0 0 0 0 0 0 0 0 0 0 0 0 0 0 0 0 0 0 127 0" result="hardAlpha"/>
<feOffset dy="4"/>
<feGaussianBlur stdDeviation="2"/>
<feComposite in2="hardAlpha" operator="out"/>
<feColorMatrix type="matrix" values="0 0 0 0 0 0 0 0 0 0 0 0 0 0 0 0 0 0 0.25 0"/>
<feBlend mode="normal" in2="BackgroundImageFix" result="effect1_dropShadow_540_27"/>
<feBlend mode="normal" in="SourceGraphic" in2="effect1_dropShadow_540_27" result="shape"/>
</filter>
</defs>
</svg>
