<svg width="123" height="129" viewBox="0 0 123 129" fill="none" xmlns="http://www.w3.org/2000/svg">
<g id="Group 75">
<path id="Rectangle 32" d="M0 50C0 22.3858 22.3858 0 50 0H72.4261C100.04 0 122.426 22.3858 122.426 50V64.2366V78.4731C122.426 106.087 100.04 128.473 72.4261 128.473H50C22.3858 128.473 0 106.087 0 78.4731V50Z" fill="url(#paint0_linear_478_109)" fill-opacity="0.7"/>
<g id="tabler:battery-4-filled" opacity="0.84">
<path id="Vector" d="M77.6667 41.75C80.2174 41.7498 82.6717 42.8097 84.5275 44.7127C86.3834 46.6156 87.5004 49.2179 87.65 51.987L87.6667 52.625V52.9368L87.84 53.0056C88.6956 53.3739 89.4412 53.9918 89.9946 54.7913C90.5481 55.5908 90.8879 56.5408 90.9767 57.5369L91 58.0625V68.9375C91.0002 70.0278 90.699 71.0929 90.1355 71.9947C89.572 72.8964 88.7722 73.5932 87.84 73.9944L87.6667 74.0596V74.375C87.6668 77.1489 86.6922 79.818 84.9424 81.8362C83.1925 83.8544 80.7996 85.0691 78.2533 85.2319L77.6667 85.25H41C38.4493 85.2502 35.995 84.1903 34.1391 82.2873C32.2833 80.3844 31.1663 77.7821 31.0167 75.013L31 74.375V52.625C30.9999 49.8511 31.9744 47.182 33.7243 45.1638C35.4741 43.1456 37.867 41.9309 40.4133 41.7681L41 41.75H77.6667ZM44.3333 52.625C43.4493 52.625 42.6014 53.0069 41.9763 53.6867C41.3512 54.3666 41 55.2886 41 56.25V70.75L41.0233 71.1741C41.1237 72.0916 41.5424 72.9328 42.1939 73.5258C42.8454 74.1188 43.6805 74.4189 44.5287 74.3647C45.3768 74.3106 46.1739 73.9063 46.7572 73.2345C47.3404 72.5626 47.6657 71.6739 47.6667 70.75V56.25L47.6433 55.8259C47.5478 54.9441 47.158 54.1311 46.5479 53.5411C45.9378 52.9511 45.1498 52.6251 44.3333 52.625ZM54.3333 52.625C53.4493 52.625 52.6014 53.0069 51.9763 53.6867C51.3512 54.3666 51 55.2886 51 56.25V70.75L51.0233 71.1741C51.1237 72.0916 51.5424 72.9328 52.1939 73.5258C52.8454 74.1188 53.6805 74.4189 54.5287 74.3647C55.3768 74.3106 56.1739 73.9063 56.7572 73.2345C57.3404 72.5626 57.6657 71.6739 57.6667 70.75V56.25L57.6433 55.8259C57.5478 54.9441 57.158 54.1311 56.5479 53.5411C55.9378 52.9511 55.1498 52.6251 54.3333 52.625ZM64.3333 52.625C63.4493 52.625 62.6014 53.0069 61.9763 53.6867C61.3512 54.3666 61 55.2886 61 56.25V70.75L61.0233 71.1741C61.1237 72.0916 61.5424 72.9328 62.1939 73.5258C62.8454 74.1188 63.6805 74.4189 64.5287 74.3647C65.3768 74.3106 66.1739 73.9063 66.7572 73.2345C67.3404 72.5626 67.6657 71.6739 67.6667 70.75V56.25L67.6433 55.8259C67.5478 54.9441 67.158 54.1311 66.5479 53.5411C65.9378 52.9511 65.1498 52.6251 64.3333 52.625ZM74.3333 52.625C73.4493 52.625 72.6014 53.0069 71.9763 53.6867C71.3512 54.3666 71 55.2886 71 56.25V70.75L71.0233 71.1741C71.1237 72.0916 71.5424 72.9328 72.1939 73.5258C72.8454 74.1188 73.6805 74.4189 74.5287 74.3647C75.3768 74.3106 76.1739 73.9063 76.7572 73.2345C77.3404 72.5626 77.6657 71.6739 77.6667 70.75V56.25L77.6433 55.8259C77.5478 54.9441 77.158 54.1311 76.5479 53.5411C75.9378 52.9511 75.1498 52.6251 74.3333 52.625Z" fill="#101010"/>
</g>
</g>
<defs>
<linearGradient id="paint0_linear_478_109" x1="0" y1="64.2366" x2="122.426" y2="64.2366" gradientUnits="userSpaceOnUse">
<stop stop-color="#0A0099"/>
<stop offset="1" stop-color="#F1C6CD"/>
</linearGradient>
</defs>
</svg>
