<svg width="63" height="46" viewBox="0 0 63 46" fill="none" xmlns="http://www.w3.org/2000/svg">
<path id="Vector" d="M48.7917 0.5C51.438 0.49984 53.9844 1.59622 55.9098 3.56481C57.8352 5.53341 58.9941 8.2254 59.1494 11.09L59.1667 11.75V12.0725L59.3465 12.1437C60.2342 12.5247 61.0077 13.1639 61.5819 13.991C62.1561 14.818 62.5087 15.8009 62.6008 16.8312L62.625 17.375V28.625C62.6252 29.7529 62.3127 30.8548 61.728 31.7876C61.1434 32.7205 60.3137 33.4412 59.3465 33.8563L59.1667 33.9238V34.25C59.1668 37.1195 58.1557 39.8807 56.3402 41.9685C54.5247 44.0563 52.0421 45.3129 49.4003 45.4813L48.7917 45.5H10.75C8.10365 45.5002 5.55726 44.4038 3.63185 42.4352C1.70643 40.4666 0.547545 37.7746 0.392292 34.91L0.375 34.25V11.75C0.374853 8.88046 1.38596 6.11932 3.20144 4.03152C5.01692 1.94372 7.49954 0.687097 10.1413 0.51875L10.75 0.5H48.7917ZM14.2083 11.75C13.2911 11.75 12.4115 12.1451 11.7629 12.8484C11.1144 13.5516 10.75 14.5054 10.75 15.5V30.5L10.7742 30.9387C10.8783 31.8879 11.3127 32.758 11.9887 33.3715C12.6646 33.985 13.5311 34.2954 14.411 34.2394C15.291 34.1834 16.118 33.7651 16.7231 33.0701C17.3282 32.3751 17.6657 31.4558 17.6667 30.5V15.5L17.6425 15.0613C17.5434 14.1491 17.1389 13.308 16.506 12.6977C15.873 12.0873 15.0554 11.7501 14.2083 11.75ZM24.5833 11.75C23.6661 11.75 22.7865 12.1451 22.1379 12.8484C21.4894 13.5516 21.125 14.5054 21.125 15.5V30.5L21.1492 30.9387C21.2533 31.8879 21.6877 32.758 22.3637 33.3715C23.0396 33.985 23.9061 34.2954 24.786 34.2394C25.666 34.1834 26.493 33.7651 27.0981 33.0701C27.7032 32.3751 28.0407 31.4558 28.0417 30.5V15.5L28.0175 15.0613C27.9184 14.1491 27.5139 13.308 26.881 12.6977C26.248 12.0873 25.4304 11.7501 24.5833 11.75ZM34.9583 11.75C34.0411 11.75 33.1615 12.1451 32.5129 12.8484C31.8644 13.5516 31.5 14.5054 31.5 15.5V30.5L31.5242 30.9387C31.6283 31.8879 32.0627 32.758 32.7387 33.3715C33.4146 33.985 34.2811 34.2954 35.161 34.2394C36.041 34.1834 36.868 33.7651 37.4731 33.0701C38.0782 32.3751 38.4157 31.4558 38.4167 30.5V15.5L38.3925 15.0613C38.2934 14.1491 37.8889 13.308 37.256 12.6977C36.623 12.0873 35.8054 11.7501 34.9583 11.75ZM45.3333 11.75C44.4161 11.75 43.5365 12.1451 42.8879 12.8484C42.2394 13.5516 41.875 14.5054 41.875 15.5V30.5L41.8992 30.9387C42.0033 31.8879 42.4377 32.758 43.1137 33.3715C43.7896 33.985 44.6561 34.2954 45.536 34.2394C46.416 34.1834 47.243 33.7651 47.8481 33.0701C48.4532 32.3751 48.7907 31.4558 48.7917 30.5V15.5L48.7675 15.0613C48.6684 14.1491 48.2639 13.308 47.631 12.6977C46.998 12.0873 46.1804 11.7501 45.3333 11.75Z" fill="#FEF7FF"/>
</svg>
