<svg width="123" height="129" viewBox="0 0 123 129" fill="none" xmlns="http://www.w3.org/2000/svg">
<g id="Group 78">
<rect id="Rectangle 29" width="122.426" height="128.473" rx="50" fill="url(#paint0_linear_478_112)" fill-opacity="0.6"/>
<g id="material-symbols:weight">
<path id="Vector" d="M61.2747 49.5473C62.0302 49.5473 62.664 49.2673 63.176 48.7073C63.688 48.1473 63.9431 47.4551 63.9414 46.6306C63.9396 45.8062 63.6836 45.1139 63.1734 44.5539C62.6631 43.9939 62.0302 43.7139 61.2747 43.7139C60.5191 43.7139 59.8862 43.9939 59.376 44.5539C58.8658 45.1139 58.6098 45.8062 58.608 46.6306C58.6062 47.4551 58.8622 48.1483 59.376 48.7102C59.8898 49.2721 60.5227 49.5512 61.2747 49.5473ZM68.808 49.5473H73.4747C74.808 49.5473 75.9636 50.0334 76.9414 51.0056C77.9191 51.9778 78.5191 53.1688 78.7414 54.5785L82.5414 83.7452C82.7636 85.4952 82.3529 87.0391 81.3094 88.3769C80.2658 89.7146 78.9209 90.3826 77.2747 90.3806H45.2747C43.6302 90.3806 42.2854 89.7127 41.24 88.3769C40.1947 87.041 39.784 85.4971 40.008 83.7452L43.808 54.5785C44.0302 53.1688 44.6302 51.9778 45.608 51.0056C46.5858 50.0334 47.7414 49.5473 49.0747 49.5473H53.7414C53.608 49.0612 53.4969 48.5877 53.408 48.1269C53.3191 47.666 53.2747 47.1673 53.2747 46.6306C53.2747 44.2001 54.0525 42.1341 55.608 40.4327C57.1636 38.7313 59.0525 37.8806 61.2747 37.8806C63.4969 37.8806 65.3858 38.7313 66.9414 40.4327C68.4969 42.1341 69.2747 44.2001 69.2747 46.6306C69.2747 47.1653 69.2302 47.6641 69.1414 48.1269C69.0525 48.5896 68.9414 49.0631 68.808 49.5473Z" fill="black"/>
</g>
</g>
<defs>
<linearGradient id="paint0_linear_478_112" x1="0" y1="64.2366" x2="122.426" y2="64.2366" gradientUnits="userSpaceOnUse">
<stop stop-color="#1100FF"/>
<stop offset="0.5" stop-color="#0A0099"/>
<stop offset="0.9999" stop-color="#F1C6CD"/>
</linearGradient>
</defs>
</svg>
