<svg width="64" height="70" viewBox="0 0 64 70" fill="none" xmlns="http://www.w3.org/2000/svg">
<g id="material-symbols:weight">
<path id="Vector" d="M32.2747 20.5473C33.0302 20.5473 33.664 20.2673 34.176 19.7073C34.688 19.1473 34.9431 18.4551 34.9414 17.6306C34.9396 16.8062 34.6836 16.1139 34.1734 15.5539C33.6631 14.9939 33.0302 14.7139 32.2747 14.7139C31.5191 14.7139 30.8862 14.9939 30.376 15.5539C29.8658 16.1139 29.6098 16.8062 29.608 17.6306C29.6062 18.4551 29.8622 19.1483 30.376 19.7102C30.8898 20.2721 31.5227 20.5512 32.2747 20.5473ZM39.808 20.5473H44.4747C45.808 20.5473 46.9636 21.0334 47.9414 22.0056C48.9191 22.9778 49.5191 24.1688 49.7414 25.5785L53.5414 54.7452C53.7636 56.4952 53.3529 58.0391 52.3094 59.3769C51.2658 60.7146 49.9209 61.3826 48.2747 61.3806H16.2747C14.6302 61.3806 13.2854 60.7127 12.24 59.3769C11.1947 58.041 10.784 56.4971 11.008 54.7452L14.808 25.5785C15.0302 24.1688 15.6302 22.9778 16.608 22.0056C17.5858 21.0334 18.7414 20.5473 20.0747 20.5473H24.7414C24.608 20.0612 24.4969 19.5877 24.408 19.1269C24.3191 18.666 24.2747 18.1673 24.2747 17.6306C24.2747 15.2001 25.0525 13.1341 26.608 11.4327C28.1636 9.73131 30.0525 8.88062 32.2747 8.88062C34.4969 8.88062 36.3858 9.73131 37.9414 11.4327C39.4969 13.1341 40.2747 15.2001 40.2747 17.6306C40.2747 18.1653 40.2302 18.6641 40.1414 19.1269C40.0525 19.5896 39.9414 20.0631 39.808 20.5473Z" fill="white"/>
</g>
</svg>
